<?xml version="1.0" standalone="no"?>
<!DOCTYPE svg PUBLIC "-//W3C//DTD SVG 20010904//EN"
 "http://www.w3.org/TR/2001/REC-SVG-20010904/DTD/svg10.dtd">
<svg version="1.0" xmlns="http://www.w3.org/2000/svg"
 width="432.000000pt" height="432.000000pt" viewBox="0 0 432.000000 432.000000"
 preserveAspectRatio="xMidYMid meet">
<metadata>
Created by potrace 1.11, written by Peter Selinger 2001-2013
</metadata>
<g transform="translate(0.000000,432.000000) scale(0.100000,-0.100000)"
fill="#000000" stroke="none">
<path d="M1627 4229 c-93 -22 -195 -101 -234 -183 -14 -31 -19 -33 -40 -25
-37 14 -162 11 -228 -6 -207 -52 -354 -194 -371 -356 l-6 -65 -52 -27 c-144
-75 -254 -266 -260 -449 l-3 -78 -42 -30 c-73 -54 -132 -156 -168 -293 -20
-78 -21 -252 0 -325 14 -50 13 -53 -6 -64 -11 -5 -40 -29 -64 -51 -81 -74
-123 -188 -123 -332 0 -151 51 -292 134 -374 l43 -42 -18 -52 c-10 -29 -18
-67 -19 -86 -1 -117 57 -276 129 -354 41 -44 114 -87 148 -87 16 0 18 -12 19
-108 0 -124 19 -183 84 -274 77 -108 213 -182 324 -177 l51 2 80 -83 c175
-181 357 -261 564 -247 188 12 392 120 512 271 l39 49 0 167 c0 92 -3 188 -6
214 l-7 46 -201 0 -202 0 -12 -34 c-20 -54 -96 -132 -160 -163 -49 -24 -69
-28 -142 -28 -70 0 -94 5 -140 26 -81 39 -144 99 -182 177 -28 57 -33 77 -33
142 0 65 5 85 33 142 89 182 306 257 483 167 46 -23 124 -109 141 -155 l12
-34 207 0 208 0 -2 257 -2 258 -421 3 -421 2 -18 -40 c-10 -22 -22 -37 -26
-34 -5 3 -6 -1 -3 -9 7 -19 -76 -94 -134 -120 -38 -18 -66 -22 -142 -22 -89 0
-99 2 -158 34 -116 63 -182 163 -190 287 -7 103 22 177 97 254 76 76 135 103
236 108 137 6 239 -49 308 -166 l33 -57 420 0 419 0 2 258 2 257 -147 0 -147
0 -30 -56 c-109 -204 -394 -229 -553 -49 -69 78 -87 126 -86 230 0 77 4 97 26
140 34 64 108 135 178 171 48 25 66 28 145 29 79 0 97 -4 147 -28 65 -32 141
-110 158 -163 l12 -35 146 3 147 3 0 255 0 255 -297 3 -296 2 -23 -47 c-79
-164 -281 -229 -452 -145 -170 84 -246 277 -173 438 69 150 220 236 378 214
107 -15 198 -82 249 -182 l19 -38 300 0 299 0 1 377 0 376 -46 45 c-101 97
-299 146 -447 111z"/>
<path d="M2455 4227 c-77 -20 -155 -60 -208 -107 l-47 -42 0 -379 1 -379 299
0 300 0 20 41 c30 57 115 143 135 135 9 -3 14 -2 11 3 -12 19 61 36 159 36
117 0 148 -13 237 -94 180 -165 135 -443 -90 -553 -59 -30 -76 -33 -152 -33
-77 0 -92 3 -153 33 -69 34 -132 100 -156 165 l-11 27 -297 -2 -298 -3 -2
-257 -3 -258 149 0 149 0 11 31 c15 43 70 109 119 143 88 61 222 71 324 24 64
-30 121 -76 111 -90 -3 -6 -2 -8 4 -5 15 9 49 -31 75 -88 18 -40 23 -68 23
-135 0 -78 -3 -90 -34 -148 -94 -173 -284 -243 -457 -167 -68 30 -113 72 -149
139 l-30 56 -148 0 -148 0 3 -257 3 -258 420 -3 420 -2 29 55 c36 70 102 128
175 156 76 29 194 24 266 -12 64 -31 144 -110 175 -174 21 -42 25 -65 25 -140
0 -83 -2 -95 -34 -153 -39 -72 -88 -120 -163 -159 -47 -25 -63 -28 -149 -28
-67 0 -101 4 -112 14 -10 7 -17 11 -17 7 0 -13 -63 26 -104 64 -23 22 -53 62
-66 90 l-24 50 -420 -2 -421 -3 -2 -257 -2 -257 204 -3 205 -3 26 52 c32 67
110 136 177 160 82 28 189 24 259 -10 83 -41 142 -98 180 -175 28 -57 33 -76
33 -142 -1 -59 -6 -86 -26 -130 -57 -121 -169 -203 -295 -216 -48 -5 -78 -2
-134 15 -62 19 -82 31 -130 79 -31 32 -63 74 -71 95 l-13 37 -207 0 -208 0 -1
-214 -1 -213 39 -49 c88 -110 233 -207 372 -249 73 -21 221 -30 292 -17 145
28 279 105 406 236 l82 83 78 5 c229 16 406 236 390 485 -5 66 -3 73 14 73 35
0 107 42 147 85 51 56 87 128 112 223 23 92 24 151 1 218 l-18 50 38 40 c147
151 183 426 83 624 -23 45 -92 117 -133 139 -19 10 -19 13 -7 63 23 90 27 150
15 239 -22 184 -103 339 -205 396 -12 7 -17 29 -20 89 -9 189 -117 376 -261
451 l-52 27 -6 64 c-9 85 -38 144 -106 213 -61 62 -163 118 -265 144 -66 17
-191 20 -228 6 -22 -9 -26 -6 -38 22 -23 55 -104 132 -172 162 -51 23 -79 29
-157 31 -55 2 -116 -2 -145 -9z"/>
<path d="M1109 3316 c-46 -31 -63 -72 -57 -136 7 -75 69 -130 145 -130 41 0
103 40 124 80 70 131 -88 270 -212 186z"/>
<path d="M3038 3309 c-86 -70 -70 -204 28 -245 65 -27 123 -13 173 40 32 34
41 119 17 163 -23 45 -74 73 -132 73 -40 0 -56 -6 -86 -31z"/>
<path d="M1431 2568 c-57 -30 -84 -77 -78 -137 8 -76 66 -132 138 -133 88 -2
149 57 149 142 0 114 -108 181 -209 128z"/>
<path d="M2760 2572 c-49 -24 -80 -75 -80 -131 0 -86 58 -143 146 -143 54 0
96 25 123 72 42 75 17 158 -59 198 -53 27 -84 28 -130 4z"/>
<path d="M872 1811 c-95 -60 -95 -193 0 -251 66 -40 155 -17 199 52 15 26 19
45 16 86 -3 45 -9 59 -40 89 -30 31 -44 37 -89 40 -41 3 -60 -1 -86 -16z"/>
<path d="M3315 1820 c-11 -4 -33 -22 -49 -39 -39 -41 -47 -120 -17 -169 79
-125 271 -73 271 73 0 101 -112 174 -205 135z"/>
<path d="M1334 1069 c-101 -29 -133 -169 -56 -242 57 -55 133 -57 196 -6 88
74 57 217 -55 249 -39 11 -43 11 -85 -1z"/>
<path d="M2896 1070 c-106 -32 -136 -174 -52 -248 59 -52 141 -50 198 5 79 76
44 213 -63 243 -39 11 -44 11 -83 0z"/>
</g>
</svg>
